<svg width="90" height="90" viewBox="0 0 90 90" fill="none" xmlns="http://www.w3.org/2000/svg">
<circle cx="45" cy="45" r="45" fill="#BFA6A0"/>
<g clip-path="url(#clip0)">
<path d="M4.5 47.1966C4.5 46.2536 4.5 45.2595 4.5 44.2727C4.50939 42.2353 4.69503 40.2027 5.05479 38.1982C5.29977 36.9336 5.55915 35.669 5.87618 34.4264C6.45535 32.1234 7.26659 29.887 8.2971 27.7525C8.96718 26.3636 9.73812 25.0259 10.5019 23.6882C11.3148 22.2965 12.2377 20.9739 13.2614 19.7336C13.8595 19.0027 14.4287 18.2278 15.0771 17.5407C16.7218 15.7632 18.5181 14.1365 20.4449 12.6797C23.7099 10.2065 27.3212 8.2428 31.159 6.85376C33.1979 6.09975 35.2977 5.52742 37.4346 5.14326C39.0543 4.81406 40.6977 4.61849 42.3485 4.55848C43.8904 4.53655 45.4395 4.5 47.0102 4.5C48.1432 4.51806 49.2741 4.60594 50.3966 4.76315C55.0685 5.38626 59.601 6.81521 63.7982 8.98822C65.8555 10.0528 67.8158 11.3004 69.6559 12.7162C70.7223 13.5422 71.7526 14.4267 72.7469 15.3404C73.6844 16.1937 74.5744 17.099 75.4128 18.0524C76.3994 19.1733 77.3231 20.3496 78.1796 21.5757C79.1583 22.9867 80.0603 24.4508 80.8815 25.9616C81.5541 27.3012 82.153 28.6775 82.6756 30.0843C83.1583 31.2758 83.5762 32.4893 83.9509 33.7392C84.2607 34.7553 84.4913 35.7933 84.7074 36.8313C84.9236 37.8693 85.0677 38.7099 85.1974 39.6529C85.3127 40.4716 85.3919 41.2976 85.4279 42.1163C85.4784 43.454 85.5072 44.799 85.4928 46.1367C85.4915 47.7583 85.3565 49.377 85.0893 50.9758C84.902 52.0357 84.7651 53.1029 84.4985 54.1409C84.1022 55.6906 83.6267 57.2183 83.1439 58.7388C82.4453 60.8266 81.5451 62.8392 80.4564 64.7474C79.916 65.7343 79.3036 66.6772 78.684 67.6129C78.1724 68.3877 77.6464 69.1626 77.0628 69.8789C76.2919 70.8292 75.4777 71.7503 74.6491 72.6494C73.9095 73.489 73.1228 74.2846 72.293 75.0323C71.0321 76.1142 69.728 77.1449 68.3878 78.1171C67.3647 78.8481 66.2263 79.4548 65.1888 80.1419C63.7268 81.0328 62.194 81.7981 60.6063 82.4299C59.6985 82.8173 58.769 83.1609 57.8251 83.4459C56.8813 83.731 55.8221 84.06 54.799 84.2939C53.5309 84.5936 52.2628 84.864 50.9803 85.0614C49.8995 85.2368 48.8187 85.2588 47.7019 85.4123C46.1187 85.5237 44.5298 85.5237 42.9465 85.4123C41.7396 85.3768 40.5363 85.262 39.344 85.0687C38.2056 84.9152 37.0672 84.7105 35.936 84.4766C35.1074 84.3012 34.2932 84.0527 33.4862 83.8114C32.6792 83.5702 31.9371 83.3509 31.1878 83.0805C30.035 82.6272 28.9038 82.1156 27.7581 81.6185C26.295 80.9907 24.8873 80.2375 23.5503 79.3671C22.4336 78.6361 21.3456 77.9051 20.272 77.101C18.3655 75.6819 16.6013 74.0757 15.0051 72.3058C14.2846 71.531 13.6361 70.7049 12.9876 69.8716C11.7774 68.3541 10.6998 66.7325 9.76695 65.0252C8.96718 63.5267 8.27549 61.9697 7.56218 60.42C6.67117 58.3721 5.98329 56.2393 5.50872 54.0532C5.22051 52.9202 5.05479 51.7506 4.88908 50.5518C4.72336 49.353 4.6369 48.3589 4.5 47.1966ZM83.0359 45.0037H83.1439C83.0286 43.5417 82.9278 42.0797 82.8053 40.6178C82.568 38.2841 82.0849 35.983 81.3643 33.7539C80.8315 31.9394 80.1319 30.1798 79.2748 28.4981C78.6047 27.2189 77.9274 25.9324 77.1709 24.7043C76.2211 23.1889 75.1614 21.7473 74.0006 20.3915C72.5264 18.6418 70.8959 17.0341 69.13 15.589C67.4213 14.1705 65.5938 12.906 63.6685 11.8098C61.6916 10.704 59.6259 9.76984 57.4937 9.01746C55.388 8.27175 53.2164 7.73322 51.0091 7.4093C49.7338 7.21925 48.444 7.07305 47.1543 6.99995C45.8646 6.92686 44.719 6.99995 43.5013 6.99995C41.9717 7.00407 40.4454 7.14595 38.9405 7.42392C37.4634 7.67977 35.9936 8.03064 34.5382 8.41075C32.4778 8.96363 30.475 9.71762 28.5579 10.6622C27.0515 11.362 25.6054 12.1885 24.2348 13.1329C22.9451 14.0466 21.6266 14.9457 20.4233 15.9764C19.154 17.074 17.951 18.2482 16.8208 19.4924C15.7751 20.6508 14.7983 21.8713 13.8955 23.1473C12.4297 25.152 11.2035 27.326 10.2425 29.6238C9.65166 31.0858 9.08246 32.5477 8.60692 34.0097C8.01905 35.8742 7.60415 37.7904 7.36764 39.7333C7.15343 41.2225 7.0331 42.7241 7.00738 44.2288C6.99171 45.8938 7.0711 47.5584 7.24515 49.2141C7.44731 51.1071 7.782 52.9832 8.24666 54.828C8.79345 56.8838 9.51673 58.8871 10.4082 60.8148C11.3421 62.8617 12.4563 64.8189 13.737 66.6626C14.8958 68.3468 16.1925 69.9289 17.6133 71.3921C19.3988 73.2324 21.3584 74.8899 23.4639 76.3408C25.2461 77.5857 27.1398 78.6576 29.1199 79.5425C30.5609 80.1712 32.002 80.7121 33.515 81.2311C35.2338 81.8184 37.0015 82.2466 38.7964 82.5103C40.0088 82.707 41.2305 82.8388 42.4566 82.905C44.0838 82.9926 45.7145 82.9926 47.3417 82.905C48.9782 82.7875 50.6069 82.5752 52.2195 82.2691C53.5952 82.0138 54.9565 81.6844 56.2976 81.2822C58.1962 80.7416 60.0357 80.0069 61.7879 79.0893C63.2866 78.2925 64.7853 77.4738 66.1975 76.5309C67.6093 75.5793 68.9595 74.5367 70.2395 73.4096C71.4591 72.3456 72.605 71.1976 73.6692 69.974C74.8045 68.6554 75.8607 67.2689 76.8322 65.822C77.7041 64.5282 78.4318 63.1393 79.1811 61.765C79.5505 61.043 79.8753 60.2984 80.1538 59.5356C80.6077 58.3806 81.0977 57.2257 81.4291 56.0342C81.8932 54.4255 82.2732 52.7932 82.5675 51.1439C82.9557 49.1148 83.1128 47.0472 83.0359 44.9817V45.0037Z" fill="#56423D"/>
<path d="M68.8707 50.7565H77.8987C78.4967 50.7565 78.4823 50.7565 78.4679 51.3486C78.4423 52.4771 78.2727 53.5975 77.9635 54.6818C77.4889 56.4657 76.914 58.2205 76.2415 59.9376C74.9735 62.875 73.2889 65.6086 71.2411 68.0515C69.5702 70.0852 67.6135 71.8585 65.4338 73.3145C63.8623 74.4028 62.1693 75.2984 60.3902 75.9826C58.7186 76.5966 57.0471 77.2107 55.3466 77.737C54.0713 78.1317 52.76 78.3802 51.4559 78.6872C50.7786 78.8481 50.0869 78.9796 49.4024 79.1185C48.9917 79.1989 48.9341 79.1551 48.9341 78.7311C48.9341 77.045 48.9341 75.3564 48.9341 73.6654C48.9341 73.2488 48.9845 73.2049 49.3952 73.2049H50.3823C50.7786 73.2049 50.829 73.2634 50.829 73.6508C50.829 74.0382 50.829 74.3818 50.829 74.718C50.829 74.9227 50.9011 75.0177 51.1172 74.9666C52.0971 74.74 53.0914 74.5572 54.0569 74.2794C55.0224 74.0017 56.0816 73.6508 57.0687 73.2634C58.0534 72.8867 59.0157 72.4522 59.9507 71.9622C61.1396 71.3263 62.3068 70.6465 63.4308 69.9009C65.1759 68.737 66.7773 67.3651 68.2006 65.8147C69.6341 64.2564 70.8599 62.514 71.8464 60.632C72.5583 59.3125 73.1446 57.9271 73.5972 56.4947C73.7701 55.9172 73.9215 55.3397 74.1016 54.7622C74.188 54.4918 74.1016 54.3748 73.8278 54.3675H59.7922C59.2014 54.3675 59.187 54.3675 59.187 53.7535C59.187 52.9348 59.187 52.1185 59.187 51.3047C59.187 50.8076 59.187 50.7711 59.7057 50.7711H68.8707V50.7565Z" fill="#56423D"/>
<path d="M23.4855 54.3529H16.5182C16.0066 54.3529 15.9706 54.3529 16.0859 54.8865C16.4132 56.2373 16.8768 57.5502 17.4692 58.8046C17.9304 59.806 18.4275 60.7929 18.9751 61.7285C20.0131 63.5324 21.2908 65.1828 22.7722 66.6334C24.0575 67.9161 25.4645 69.0669 26.9728 70.069C28.6923 71.2135 30.5135 72.1924 32.4127 72.9929C34.4562 73.8613 36.5837 74.5105 38.7604 74.93H38.8829C39.308 74.9958 39.3512 74.93 39.3512 74.5353C39.3512 74.1406 39.3512 73.8701 39.3512 73.5339C39.3512 73.1976 39.4665 73.183 39.7042 73.183H40.9147C41.1525 73.183 41.2606 73.3072 41.2606 73.5412C41.2606 75.3053 41.2606 77.0694 41.2606 78.8335C41.2606 79.2136 41.0156 79.1405 40.7994 79.0966C39.5746 78.8335 38.3425 78.6142 37.1392 78.2925C35.2371 77.7809 33.3205 77.2838 31.4688 76.6332C27.8602 75.4037 24.5326 73.4497 21.6842 70.8877C19.3855 68.7532 17.4049 66.2908 15.8049 63.5779C14.5548 61.4916 13.5741 59.2511 12.8868 56.9113C12.5265 55.6979 12.2167 54.4699 11.9357 53.2564C11.8164 52.6265 11.7394 51.9891 11.7051 51.3486C11.6619 50.8734 11.7051 50.8003 12.2095 50.8003H17.5485L29.9197 50.7492H30.5537C30.9716 50.7492 31.0149 50.8003 31.0149 51.2097C31.0149 52.1015 31.0149 52.9933 31.0149 53.8851C31.0149 54.3017 30.9644 54.3456 30.5537 54.3456L23.4855 54.3529Z" fill="#56423D"/>
<path d="M68.8562 39.7625H59.7634C59.2086 39.7625 59.2014 39.7625 59.2014 39.1777C59.2014 38.3493 59.2014 37.5209 59.2014 36.6924C59.2014 36.1953 59.2014 36.1661 59.7273 36.1661H73.4603C74.2385 36.1661 74.2313 36.1661 74.0367 35.4351C73.4697 33.2638 72.6191 31.1791 71.5077 29.2364C70.2099 26.9238 68.542 24.8462 66.5722 23.0889C63.2502 20.1118 59.3429 17.8843 55.1089 16.5539C53.9128 16.1957 52.6951 15.9033 51.5063 15.589L51.2541 15.5451C50.9731 15.4793 50.8578 15.6109 50.865 15.8887C50.8722 16.1665 50.865 16.6197 50.865 16.9559C50.865 17.2922 50.7858 17.3653 50.4471 17.358C50.1085 17.3507 49.7699 17.358 49.4312 17.358C49.0926 17.358 48.9773 17.2995 48.9773 16.9194C48.9773 15.1991 48.9773 13.4789 48.9773 11.7587C48.9773 11.3712 49.0349 11.3274 49.4528 11.4151C50.4616 11.6271 51.4703 11.8098 52.4646 12.0803C54.41 12.5993 56.3698 13.0817 58.2791 13.7177C60.8955 14.5782 63.3793 15.8086 65.6572 17.3726C67.9816 18.9801 70.0536 20.9343 71.8031 23.1693C73.4798 25.2668 74.8932 27.5675 76.0109 30.0186C76.6995 31.5676 77.254 33.1745 77.6681 34.8211C77.8699 35.6252 78.1364 36.4073 78.2805 37.226C78.3911 37.9915 78.4585 38.7627 78.4823 39.5359C78.4823 39.609 78.3454 39.7479 78.2589 39.7552C78.0046 39.7727 77.7495 39.7727 77.4952 39.7552L68.8562 39.7625Z" fill="#56423D"/>
<path d="M21.3169 39.7625H12.2528C11.698 39.7625 11.6476 39.6967 11.7124 39.1485C11.7629 38.7099 11.7989 38.2713 11.8421 37.8327C12.089 36.2381 12.4872 34.6714 13.031 33.1544C13.7377 30.8132 14.7455 28.5766 16.0283 26.5025C17.284 24.445 18.7578 22.5331 20.4234 20.8009C22.5767 18.6094 25.0813 16.805 27.8303 15.4647C29.4968 14.6398 31.2211 13.9411 32.9892 13.3741C34.0555 13.0305 35.1507 12.7382 36.2387 12.4677C37.6797 12.1022 39.1928 11.7879 40.6698 11.4516L40.886 11.4151C41.1382 11.3566 41.239 11.4516 41.239 11.7148C41.239 12.2192 41.239 12.7235 41.239 13.2279C41.239 14.456 41.239 15.6767 41.239 16.8828C41.239 17.3433 41.203 17.3799 40.7491 17.3872H39.8052C39.3801 17.3872 39.3225 17.3287 39.3225 16.9121C39.3225 16.4954 39.3225 16.2469 39.3225 15.9106C39.3225 15.5744 39.2432 15.4866 38.919 15.567C37.478 15.9252 36.0369 16.2396 34.6824 16.6928C31.0134 17.8788 27.5931 19.7452 24.5952 22.197C22.5479 23.845 20.7787 25.8201 19.3571 28.0449C18.4621 29.405 17.7178 30.8611 17.1379 32.3869C16.756 33.4322 16.4174 34.4921 16.0715 35.5594C15.8842 36.1588 15.9346 36.188 16.5615 36.188H30.3665C30.4806 36.1642 30.5983 36.1642 30.7123 36.188C30.8204 36.2392 30.9789 36.3635 30.9789 36.4658C30.9789 37.4672 30.9789 38.4687 30.9789 39.4628C30.9824 39.5037 30.9768 39.5448 30.9627 39.5833C30.9486 39.6217 30.9263 39.6565 30.8974 39.6852C30.8684 39.7138 30.8336 39.7356 30.7954 39.749C30.7572 39.7624 30.7165 39.767 30.6763 39.7625H21.3097H21.3169Z" fill="#56423D"/>
<path d="M61.4638 59.5283H66.3921C66.882 59.5283 66.9397 59.5867 66.6587 59.9668C66.1536 60.6625 65.6074 61.3265 65.0231 61.9551C64.0295 63.0037 62.8734 63.8803 61.6007 64.5501C61.0531 64.8425 60.4551 65.0399 59.8715 65.2811C59.6841 65.3542 59.6121 65.2811 59.6121 65.0837C59.6121 64.5647 59.6121 64.053 59.6121 63.534C59.6121 63.3001 59.7346 63.2051 59.9507 63.2051C60.383 63.2051 60.8225 63.2051 61.2548 63.2051C61.4941 63.2258 61.735 63.1984 61.9637 63.1244C62.1925 63.0503 62.4046 62.9312 62.5878 62.7738C63.2723 62.1963 63.9279 61.5896 64.5908 60.9902C64.6388 60.9238 64.6753 60.8497 64.6989 60.7709C64.6115 60.7212 64.5165 60.6866 64.4179 60.6686H58.4376C57.782 60.6686 57.782 60.6686 57.782 61.3192C57.782 63.2684 57.782 65.2031 57.782 67.1232C57.782 67.6568 57.782 67.6933 57.2272 67.7006H56.5067C56.0816 67.7006 56.0239 67.6495 56.0239 67.2182C56.0239 66.3264 56.0239 65.4346 56.0239 64.5428C56.0239 63.0808 56.0239 61.6189 56.0239 60.1569C56.0239 59.5575 56.0239 59.5502 56.6364 59.5502H61.471L61.4638 59.5283Z" fill="#56423D"/>
<path d="M57.8612 32.8109C57.8304 32.7385 57.7917 32.6699 57.7459 32.6062C57.0264 31.7853 56.194 31.0738 55.2746 30.4937C55.0508 30.3759 54.8055 30.3062 54.554 30.289C54.0713 30.289 53.5814 30.289 53.113 30.289C52.7384 30.289 52.6807 30.2305 52.6735 29.865C52.6663 29.4996 52.6735 29.0244 52.6735 28.6078C52.6735 28.1911 52.7167 28.1984 53.0914 28.3081C54.202 28.6793 55.2441 29.2351 56.1752 29.9528C57.4813 30.8578 58.6182 31.9914 59.5328 33.3007C59.6368 33.483 59.7259 33.6737 59.7994 33.8708C59.6032 33.9219 59.4032 33.9562 59.2013 33.9732H49.5825C49.0421 33.9732 49.0205 33.9732 49.0205 33.4176C49.0205 31.0833 49.0205 28.7491 49.0205 26.4148C49.0205 25.8812 49.0205 25.852 49.5825 25.852H50.303C50.7714 25.852 50.8002 25.852 50.8002 26.371C50.8002 27.9109 50.8002 29.4484 50.8002 30.9834C50.8002 31.422 50.8002 31.8679 50.8002 32.3065C50.8002 32.7451 50.8002 32.8767 51.355 32.8767H56.9173C57.1191 32.8767 57.3208 32.8767 57.5226 32.8767C57.6366 32.8613 57.7496 32.8393 57.8612 32.8109Z" fill="#56423D"/>
<path d="M35.7126 33.9585H30.7771C30.6471 33.9432 30.5191 33.9138 30.3953 33.8708C30.4335 33.7442 30.4842 33.6217 30.5466 33.5053C32.0341 31.3148 34.0919 29.5864 36.4908 28.5127C36.7256 28.4126 36.9662 28.3271 37.2113 28.2569C37.4059 28.1911 37.5211 28.2569 37.5211 28.4835C37.5211 28.9708 37.5211 29.4581 37.5211 29.9454C37.5211 30.1867 37.3842 30.2598 37.1681 30.2598C36.7358 30.2598 36.2963 30.2598 35.864 30.2598C35.6203 30.2385 35.3748 30.267 35.1422 30.3436C34.9095 30.4201 34.6943 30.5433 34.5094 30.7057C33.8249 31.2831 33.1764 31.8972 32.5136 32.5039C32.4487 32.5624 32.4343 32.6866 32.3983 32.7743C32.4803 32.8141 32.5678 32.8412 32.6577 32.8547H39.0846C39.4233 32.8547 39.4449 32.6428 39.4449 32.3796C39.4449 30.4303 39.4449 28.481 39.4449 26.5318C39.4449 25.8008 39.4449 25.8008 40.1654 25.8008H40.8859C40.9283 25.7949 40.9714 25.799 41.012 25.8126C41.0526 25.8262 41.0895 25.8491 41.1201 25.8794C41.1507 25.9097 41.174 25.9467 41.1884 25.9875C41.2027 26.0284 41.2077 26.072 41.203 26.1151C41.203 26.1663 41.203 26.2247 41.203 26.2759C41.203 28.654 41.203 31.0297 41.203 33.403C41.203 33.8635 41.1597 33.9074 40.713 33.9074L35.7126 33.9585Z" fill="#56423D"/>
<path d="M25.8703 60.7124C25.9227 60.8013 25.9804 60.8867 26.0432 60.9683C26.7401 61.7556 27.5488 62.4331 28.4425 62.9785C28.635 63.0872 28.8494 63.1497 29.0694 63.1612C29.6098 63.1612 30.1502 63.1612 30.6905 63.1612C30.9571 63.1612 31.0724 63.2782 31.0724 63.5487C31.0724 63.9799 31.0724 64.4112 31.0724 64.8425C31.0724 65.2738 31.0076 65.2957 30.6689 65.1495C29.9495 64.8674 29.247 64.5428 28.565 64.1773C27.3695 63.478 26.2859 62.5981 25.3515 61.5677C24.9057 61.0661 24.4918 60.5363 24.1123 59.9815C23.8601 59.6233 23.9105 59.5575 24.3428 59.5575H32.3477C32.9962 59.5575 33.6374 59.5575 34.2859 59.5575C34.5669 59.5575 34.6822 59.6671 34.6822 59.9595C34.6822 62.3133 34.6822 64.6671 34.6822 67.0208C34.6822 67.0939 34.6822 67.1743 34.6822 67.2474C34.6822 67.5033 34.5669 67.6202 34.3147 67.6202H33.3204C33.0682 67.6202 32.9602 67.5106 32.9674 67.2474C32.9674 65.1714 32.9674 63.0954 32.9674 61.0268C32.9674 60.6832 32.7656 60.6467 32.5134 60.6467H26.1153C26.0326 60.6643 25.9508 60.6863 25.8703 60.7124Z" fill="#56423D"/>
<path d="M15.6175 44.0388H19.2705C19.7029 44.0388 19.7389 44.0826 19.7461 44.5212C19.7533 44.9598 19.7461 45.508 19.7461 45.9832C19.7461 46.2682 19.6452 46.3925 19.357 46.3925H11.8925C11.6115 46.3925 11.489 46.2756 11.489 45.9832C11.489 45.4861 11.489 44.9963 11.489 44.5212C11.489 44.0461 11.5394 44.0388 11.9646 44.0388H15.6175Z" fill="#56423D"/>
<path d="M74.7571 44.0461H78.3596C78.7703 44.0461 78.8136 44.0899 78.8208 44.5139C78.828 44.9379 78.8208 45.5446 78.8208 46.0636C78.8208 46.2829 78.7415 46.3998 78.5037 46.3998H71.3491H71.0969C70.6718 46.3998 70.6213 46.3487 70.6213 45.9174C70.6213 45.4861 70.6213 44.9525 70.6213 44.4554C70.6213 44.0826 70.6862 44.0241 71.0536 44.0241H74.7427L74.7571 44.0461Z" fill="#56423D"/>
<path d="M34.7039 37.6208C34.7039 37.5696 34.7039 37.5111 34.7039 37.4599C34.7039 36.729 34.5238 36.729 35.4244 36.729C35.6877 36.7235 35.9509 36.7456 36.2098 36.7947C36.3951 36.8287 36.56 36.9349 36.669 37.0907C36.7781 37.2465 36.8228 37.4393 36.7934 37.6281C36.8115 37.8198 36.7544 38.0111 36.6343 38.1602C36.5142 38.3094 36.3409 38.4045 36.1521 38.4248C35.742 38.4552 35.3302 38.4552 34.9201 38.4248C34.848 38.4248 34.7327 38.2786 34.7183 38.1836C34.7025 37.9817 34.7025 37.7788 34.7183 37.5769L34.7039 37.6208ZM35.0137 37.6208C35.0137 38.4029 35.0714 38.4541 35.7775 38.3517C35.9527 38.3434 36.1189 38.2705 36.2449 38.1467C36.371 38.0229 36.4481 37.8567 36.462 37.6792C36.4741 37.5016 36.4178 37.3261 36.3049 37.1897C36.192 37.0533 36.0313 36.9668 35.8567 36.9483C35.1362 36.7655 35.0209 36.8605 35.0209 37.5915L35.0137 37.6208Z" fill="#56423D"/>
<path d="M52.2483 38.4833C52.1221 38.4968 51.9946 38.4829 51.8741 38.4426C51.7536 38.4022 51.643 38.3362 51.5496 38.2491C51.4562 38.1619 51.3822 38.0556 51.3325 37.9372C51.2827 37.8188 51.2584 37.691 51.2612 37.5623C51.2962 37.3141 51.4198 37.0875 51.6086 36.9257C51.7973 36.7638 52.0381 36.6779 52.2851 36.6842C52.5322 36.6905 52.7684 36.7886 52.9489 36.9599C53.1294 37.1312 53.2416 37.3638 53.2642 37.6134C53.2582 37.7398 53.2266 37.8636 53.1713 37.9771C53.116 38.0905 53.0383 38.1912 52.943 38.2728C52.8476 38.3544 52.7368 38.4153 52.6172 38.4515C52.4977 38.4877 52.3721 38.4985 52.2483 38.4833ZM52.9688 37.5842C52.9688 37.3903 52.8929 37.2044 52.7578 37.0673C52.6227 36.9302 52.4394 36.8532 52.2483 36.8532C52.0572 36.8532 51.8739 36.9302 51.7388 37.0673C51.6037 37.2044 51.5278 37.3903 51.5278 37.5842C51.5278 37.7781 51.6037 37.964 51.7388 38.1011C51.8739 38.2382 52.0572 38.3152 52.2483 38.3152C52.4356 38.3114 52.6142 38.2337 52.746 38.0986C52.8778 37.9635 52.9526 37.7816 52.9544 37.5915L52.9688 37.5842Z" fill="#56423D"/>
<path d="M49.9499 38.4833C49.8263 38.4944 49.7018 38.4795 49.5842 38.4395C49.4666 38.3995 49.3584 38.3352 49.2664 38.2508C49.1744 38.1664 49.1006 38.0636 49.0496 37.9489C48.9986 37.8342 48.9715 37.71 48.97 37.5842C48.9735 37.4562 49.0026 37.3302 49.0554 37.2138C49.1082 37.0974 49.1836 36.9931 49.2772 36.9071C49.3707 36.821 49.4805 36.7551 49.5998 36.7132C49.7191 36.6713 49.8455 36.6543 49.9715 36.6632C50.0963 36.6521 50.2221 36.6672 50.341 36.7075C50.4598 36.7478 50.5693 36.8125 50.6625 36.8975C50.7557 36.9825 50.8308 37.086 50.8829 37.2016C50.9351 37.3172 50.9633 37.4425 50.9658 37.5696C50.9693 37.7008 50.9444 37.8312 50.8929 37.9517C50.8415 38.0721 50.7646 38.1796 50.6678 38.2667C50.571 38.3538 50.4565 38.4183 50.3325 38.4558C50.2085 38.4932 50.0779 38.5026 49.9499 38.4833ZM49.2654 37.5915C49.2413 37.6986 49.2414 37.8097 49.2655 37.9168C49.2896 38.0238 49.3371 38.124 49.4046 38.2098C49.4721 38.2956 49.5578 38.3649 49.6553 38.4126C49.7528 38.4602 49.8597 38.4849 49.9679 38.4849C50.0761 38.4849 50.1829 38.4602 50.2804 38.4126C50.378 38.3649 50.4636 38.2956 50.5311 38.2098C50.5986 38.124 50.6462 38.0238 50.6703 37.9168C50.6944 37.8097 50.6944 37.6986 50.6704 37.5915C50.6704 37.3977 50.5945 37.2117 50.4593 37.0746C50.3242 36.9376 50.141 36.8605 49.9499 36.8605C49.7651 36.8699 49.5909 36.9511 49.4635 37.0871C49.3361 37.2232 49.2651 37.4038 49.2654 37.5915Z" fill="#56423D"/>
<path d="M47.284 38.3737H48.5377V38.4979C48.4657 38.5026 48.3935 38.5026 48.3215 38.4979H47.0534C46.9771 38.4866 46.9022 38.467 46.8301 38.4394C46.8301 38.359 46.8301 38.2494 46.9021 38.2055C47.0864 38.0458 47.2815 37.8993 47.4857 37.7669C47.6154 37.6792 47.8028 37.6573 47.9108 37.555C48.0189 37.4526 48.1774 37.2114 48.1342 37.1237C48.0828 37.0504 48.0161 36.9896 47.9389 36.9454C47.8617 36.9012 47.7759 36.8747 47.6875 36.8678C47.529 36.8678 47.3705 37.0067 47.2047 37.0579C47.1007 37.0815 46.9944 37.0937 46.8877 37.0944C46.9454 37.014 46.9886 36.9044 47.0751 36.8532C47.224 36.7489 47.3964 36.6841 47.5764 36.665C47.7565 36.6458 47.9383 36.6728 48.1054 36.7436C48.1928 36.7818 48.2709 36.8389 48.3344 36.9108C48.3978 36.9828 48.4451 37.0679 48.4729 37.1602C48.4497 37.3503 48.354 37.5235 48.2063 37.6427C48.0113 37.7691 47.8065 37.8791 47.5938 37.9716C47.4794 38.051 47.371 38.139 47.2696 38.2348L47.284 38.3737Z" fill="#56423D"/>
<path d="M53.603 38.1251C53.7014 38.1175 53.8001 38.1175 53.8984 38.1251C54.1326 38.2051 54.3739 38.2615 54.6189 38.2933C54.8423 38.2933 55.0873 38.1982 55.0873 37.9132C55.0873 37.6281 54.8495 37.5915 54.6334 37.555C54.4172 37.5184 54.374 37.555 54.2443 37.555V37.4673C54.3685 37.486 54.4947 37.486 54.6189 37.4673C54.7482 37.3989 54.8691 37.3155 54.9792 37.2187C54.8639 37.1091 54.7486 36.9117 54.6406 36.9117C54.4069 36.9318 54.1805 37.0042 53.9777 37.1237C53.812 37.2187 53.7183 37.2333 53.6318 37.0579C53.8256 36.8842 54.0647 36.7711 54.3204 36.7322C54.5761 36.6933 54.8374 36.7303 55.0729 36.8386C55.1711 36.8807 55.2493 36.96 55.291 37.0596C55.3327 37.1591 55.3346 37.2713 55.2962 37.3722C55.2713 37.486 55.2866 37.605 55.3395 37.7085C55.3825 37.7723 55.4095 37.8458 55.4181 37.9226C55.4268 37.9994 55.4168 38.0772 55.3891 38.1492C55.3614 38.2212 55.3169 38.2853 55.2592 38.3359C55.2016 38.3865 55.1327 38.422 55.0585 38.4395C54.5783 38.5671 54.0695 38.5233 53.6174 38.3152L53.603 38.1251Z" fill="#56423D"/>
<path d="M43.9624 38.1617C44.0661 38.1941 44.1721 38.2185 44.2794 38.2348C44.545 38.2646 44.812 38.2792 45.0792 38.2786C45.1441 38.2786 45.2017 38.1544 45.2593 38.0886C45.1873 38.0228 45.1224 37.9204 45.0432 37.8985C44.8454 37.8639 44.6457 37.8419 44.4452 37.8327C44.2074 37.8327 43.9768 37.7523 43.9624 37.4672C43.948 37.1822 44.1642 37.0798 44.3803 37.0579C44.7478 37.0579 45.1008 37.0579 45.4899 37.0579V37.2406C45.3965 37.2505 45.3023 37.2505 45.2089 37.2406C44.995 37.1976 44.7783 37.1708 44.5604 37.1602C44.4596 37.1602 44.3659 37.3137 44.265 37.3941C44.3659 37.4672 44.4596 37.5769 44.5749 37.5988C44.6901 37.6207 45.0216 37.5988 45.2305 37.6719C45.3013 37.6941 45.3664 37.7317 45.4212 37.7823C45.4759 37.8328 45.5191 37.8949 45.5475 37.9643C45.5475 38.0666 45.4611 38.2494 45.3602 38.3298C45.1306 38.4345 44.8792 38.4806 44.6281 38.464C44.3769 38.4474 44.1335 38.3687 43.9192 38.2348L43.9624 38.1617Z" fill="#56423D"/>
<path d="M38.2632 37.7596C38.1625 37.7663 38.0614 37.7663 37.9606 37.7596C37.7589 37.7596 37.5283 37.7012 37.5067 38.0082C37.4851 38.3152 37.7301 38.3152 37.9462 38.3225H38.7244C38.6163 38.4102 38.5803 38.4614 38.5442 38.4614C38.1624 38.4614 37.7805 38.4614 37.4058 38.4614C37.3561 38.4471 37.3107 38.4201 37.2741 38.383C37.2375 38.3459 37.211 38.2999 37.1969 38.2494C37.1801 37.9182 37.1801 37.5864 37.1969 37.2553C37.1969 37.1968 37.2617 37.0871 37.305 37.0871C37.7445 37.0871 38.1912 37.0871 38.6379 37.0871V37.1822H38.3281C38.2128 37.1822 38.0975 37.1822 37.9822 37.1822C37.867 37.1822 37.5427 37.1237 37.5427 37.4088C37.5427 37.6938 37.8093 37.6134 37.9822 37.6281H38.2704L38.2632 37.7596Z" fill="#56423D"/>
<path d="M39.0846 37.7889C39.0846 37.0579 39.0846 37.0579 39.8052 37.0579C39.9949 37.0419 40.1859 37.0643 40.3672 37.1237C40.4366 37.1603 40.4964 37.2132 40.5415 37.2781C40.5866 37.3429 40.6158 37.4178 40.6265 37.4965C40.6265 37.6134 40.432 37.7596 40.2951 37.8035C40.1185 37.8316 39.9386 37.8316 39.7619 37.8035C39.5169 37.8035 39.3945 37.9131 39.3945 38.1763C39.3945 38.2713 39.3152 38.359 39.272 38.4541C39.2021 38.3686 39.1461 38.2724 39.1063 38.169C39.0867 38.0433 39.0794 37.916 39.0846 37.7889ZM39.8052 37.7889C39.9781 37.7011 40.1366 37.6207 40.2879 37.5184C40.2879 37.5184 40.2303 37.2991 40.187 37.2991C39.9473 37.2782 39.7062 37.2782 39.4665 37.2991C39.4665 37.2991 39.3873 37.5257 39.4233 37.5696C39.5407 37.6572 39.6691 37.7285 39.8052 37.7816V37.7889Z" fill="#56423D"/>
<path d="M41.0588 37.6354C41.0458 37.4968 41.0458 37.3573 41.0588 37.2187C41.0588 37.1676 41.1741 37.131 41.239 37.0871C41.3038 37.0433 41.3398 37.1968 41.3398 37.2553C41.3398 37.4819 41.3398 37.7085 41.3398 37.9278C41.3398 38.1471 41.5488 38.3517 41.8658 38.3591C42.1828 38.3664 42.3702 38.2348 42.3918 37.9351C42.4134 37.6354 42.3918 37.5257 42.3918 37.3211C42.4138 37.2372 42.4504 37.158 42.4999 37.0871C42.5562 37.1608 42.6023 37.242 42.6368 37.3284C42.652 37.4228 42.652 37.519 42.6368 37.6135C42.6368 37.8912 42.7376 38.2933 42.4062 38.3444C42.027 38.4093 41.6398 38.4093 41.2606 38.3444C41.1885 38.3444 41.0949 38.1617 41.0733 38.0447C41.0571 37.8966 41.0571 37.747 41.0733 37.5988L41.0588 37.6354Z" fill="#56423D"/>
<path d="M43.1051 37.7304C43.0942 37.5698 43.0942 37.4086 43.1051 37.248C43.1051 37.1895 43.2059 37.1383 43.2564 37.0798C43.3068 37.1383 43.4005 37.1895 43.4005 37.248C43.4005 37.5988 43.4005 37.9789 43.4005 38.3152C43.4005 38.3664 43.2996 38.4614 43.2708 38.4541C43.242 38.4468 43.1195 38.3664 43.1123 38.3079C43.1024 38.1155 43.1024 37.9228 43.1123 37.7304H43.1051Z" fill="#56423D"/>
<path d="M41.174 19.0026C41.0587 18.4983 41.0371 18.491 40.5615 18.6298C40.403 18.6737 40.1581 18.6298 40.2373 18.9661C40.4391 19.8433 40.6264 20.7253 40.7993 21.6123C40.8113 21.7934 40.7991 21.9753 40.7633 22.1532C40.6407 22.0482 40.5317 21.9279 40.4391 21.795C40.0284 21.064 39.6537 20.2453 39.2358 19.4924C39.1778 19.3823 39.0987 19.2852 39.0031 19.2066C38.9075 19.128 38.7974 19.0696 38.6792 19.0349C38.561 19.0002 38.4372 18.9898 38.315 19.0043C38.1928 19.0189 38.0747 19.0581 37.9677 19.1196C37.7786 19.2199 37.6315 19.3859 37.5534 19.5874C37.4754 19.7888 37.4715 20.012 37.5426 20.2161C37.778 21.3369 38.0181 22.4602 38.2631 23.5859C38.3856 24.1561 38.3928 24.1414 38.9836 24.0172C39.2214 23.966 39.2646 23.8564 39.2142 23.6371C39.0269 22.7891 38.8467 21.9412 38.6882 21.0859C38.6663 20.8868 38.6663 20.6857 38.6882 20.4865C38.8215 20.6263 38.9421 20.778 39.0485 20.9397C39.4592 21.6707 39.8554 22.4456 40.2661 23.1985C40.3685 23.3888 40.5337 23.5363 40.7327 23.6152C40.9317 23.6941 41.1517 23.6992 41.3541 23.6298C41.7576 23.5128 41.9305 23.2789 41.9305 22.6941C41.8657 22.3652 41.7792 21.9193 41.6855 21.4661C41.5054 20.6181 41.3541 19.8067 41.174 19.0026Z" fill="#56423D"/>
<path d="M48.9628 18.7541C48.1414 18.6079 47.3056 18.5421 46.4842 18.3959C46.1024 18.3302 46.0159 18.4837 45.9727 18.8199C45.7997 20.1722 45.6196 21.5172 45.4107 22.8622C45.3602 23.1839 45.4899 23.2716 45.7421 23.3008L48.0982 23.6151C48.2127 23.6443 48.3319 23.6497 48.4486 23.631C48.5653 23.6124 48.6771 23.5701 48.7773 23.5066C48.8775 23.4432 48.9641 23.3599 49.0319 23.2617C49.0996 23.1636 49.1472 23.0526 49.1717 22.9353C49.3735 21.8535 49.5248 20.7424 49.6617 19.8871C49.7049 19.1196 49.5248 18.8491 48.9628 18.7541ZM48.3215 22.2701C48.3101 22.3429 48.2836 22.4123 48.2437 22.4739C48.2037 22.5354 48.1514 22.5876 48.09 22.627C48.0287 22.6664 47.9598 22.6922 47.8879 22.7025C47.816 22.7128 47.7428 22.7074 47.6731 22.6868C47.3921 22.6356 47.1111 22.5991 46.8229 22.5698C46.5347 22.5406 46.4194 22.4383 46.4698 22.1313C46.5995 21.3515 46.7172 20.567 46.8229 19.7775C46.8231 19.7202 46.8356 19.6637 46.8596 19.6119C46.8835 19.56 46.9183 19.5141 46.9615 19.4772C47.0046 19.4404 47.0552 19.4135 47.1097 19.3984C47.1641 19.3834 47.2211 19.3805 47.2768 19.3901C47.601 19.4412 47.9252 19.4778 48.2423 19.5436C48.3044 19.5498 48.3645 19.5688 48.4192 19.5993C48.4738 19.6299 48.5218 19.6713 48.5602 19.7212C48.5986 19.7711 48.6266 19.8284 48.6426 19.8896C48.6585 19.9507 48.662 20.0146 48.653 20.0772C48.5737 20.8082 48.4512 21.5392 48.3287 22.2628L48.3215 22.2701Z" fill="#56423D"/>
<path d="M36.988 23.5932C36.5557 22.6283 36.1162 21.6634 35.6695 20.6693C35.5912 20.484 35.4465 20.3356 35.2646 20.2543C35.0828 20.1729 34.8773 20.1644 34.6896 20.2307C34.1348 20.4135 33.6016 20.6401 33.0612 20.852C32.2831 21.1664 32.1101 21.583 32.456 22.3652C32.8018 23.1473 33.2485 24.0976 33.652 24.9602C33.6933 25.0778 33.7578 25.1856 33.8417 25.2769C33.9256 25.3682 34.0271 25.4411 34.1398 25.4911C34.2526 25.5411 34.3742 25.5672 34.4973 25.5676C34.6203 25.5681 34.7422 25.5429 34.8553 25.4938C35.482 25.269 36.0954 25.0078 36.6926 24.7116C36.9015 24.6093 37.0168 24.3242 37.1825 24.1268L37.1177 24.0464C37.0875 23.8918 37.0441 23.7402 36.988 23.5932ZM35.6767 24.2365C35.3957 24.3754 35.0859 24.4704 34.7472 24.5947C34.6319 24.4923 34.4662 24.4192 34.4086 24.295C34.0555 23.564 33.6881 22.8769 33.3854 22.1459C33.2558 21.8535 33.5079 21.6927 33.7241 21.5757C33.9039 21.4837 34.0892 21.4031 34.2789 21.3345C34.3494 21.2892 34.4294 21.2611 34.5124 21.2524C34.5955 21.2437 34.6794 21.2547 34.7576 21.2844C34.8358 21.3142 34.9061 21.3619 34.9631 21.4238C35.02 21.4858 35.0621 21.5603 35.0859 21.6415C35.35 22.2555 35.631 22.8769 35.9289 23.5055C36.1018 23.871 36.0441 24.061 35.6767 24.2365Z" fill="#56423D"/>
<path d="M65.6644 28.0741C65.4555 27.8475 65.333 27.7233 65.2177 27.5917C65.1024 27.4601 64.9295 27.3505 64.7278 27.5551C64.526 27.7598 64.0649 28.1253 63.7623 28.4323C63.4597 28.7393 63.4164 28.7028 63.2003 28.4323C62.9841 28.1619 62.6527 27.8622 62.3717 27.5917C62.1988 27.4236 62.2132 27.292 62.3717 27.1385C62.6671 26.8826 62.9625 26.6195 63.2651 26.3636C63.5677 26.1078 63.6686 25.9982 63.3156 25.6327L63.2723 25.5888C63.085 25.2964 62.8905 25.3549 62.6671 25.5888C61.6656 26.5098 60.6497 27.4163 59.6482 28.3373C59.1366 28.8051 59.1438 28.8197 59.6986 29.2656C59.7496 29.2932 59.8065 29.3076 59.8643 29.3076C59.9221 29.3076 59.979 29.2932 60.03 29.2656C60.4119 28.9513 60.7505 28.6151 61.1468 28.2642C61.3197 28.0961 61.4494 28.0741 61.6224 28.2642C61.8962 28.5639 62.1844 28.849 62.4798 29.1268C62.7752 29.4045 62.6455 29.4557 62.4798 29.6238C62.0907 29.9528 61.7088 30.2963 61.3341 30.6472C61.3152 30.6832 61.3053 30.7234 61.3053 30.7642C61.3053 30.805 61.3152 30.8451 61.3341 30.8811C61.644 31.4001 61.9106 31.444 62.3573 31.0566L62.4293 30.9908L65.1313 28.5566C65.2537 28.3812 65.4411 28.2496 65.6644 28.0741Z" fill="#56423D"/>
<path d="M67.3431 30.1794C67.1591 30.0071 66.947 29.8686 66.7162 29.77C66.4689 29.8161 66.2272 29.8896 65.9957 29.9893C65.0879 30.54 64.1872 31.1004 63.2938 31.6706C63.1867 31.7116 63.0908 31.7778 63.014 31.8639C62.9372 31.95 62.8817 32.0534 62.8521 32.1656C62.8225 32.2778 62.8197 32.3955 62.8439 32.5089C62.8681 32.6224 62.9186 32.7285 62.9912 32.8182C63.2866 33.3518 63.6468 33.8416 63.9783 34.3533C64.4034 35.0038 64.2521 34.865 64.8501 34.536C65.0446 34.4264 65.0735 34.3167 64.9438 34.1267C64.6628 33.71 64.4106 33.2714 64.108 32.8767C64.0596 32.8351 64.0223 32.7819 63.9993 32.7219C63.9763 32.662 63.9684 32.5972 63.9762 32.5333C63.9841 32.4695 64.0075 32.4087 64.0443 32.3563C64.0812 32.3039 64.1303 32.2617 64.1872 32.2334C64.2881 32.153 64.4034 32.0945 64.497 32.0141C64.7204 31.8168 64.8789 31.9045 65.0158 32.1092C65.2608 32.4747 65.513 32.8401 65.7363 33.2056C66.1038 33.805 66.1038 33.805 66.6802 33.4176C66.8819 33.286 66.8675 33.1837 66.745 33.0083C66.428 32.5551 66.1254 32.0872 65.8228 31.6267C65.7724 31.5463 65.7003 31.422 65.7219 31.3489C65.83 30.9761 66.5505 30.7861 66.7955 31.0712C67.0787 31.4297 67.3433 31.803 67.588 32.1896C67.9339 32.7013 67.9411 32.7013 68.4599 32.3431C68.6256 32.2261 68.6616 32.1165 68.5535 31.9483C68.1573 31.3562 67.7754 30.7422 67.3431 30.1794Z" fill="#56423D"/>
<path d="M54.8926 20.3623C54.4459 20.1722 53.9847 20.0114 53.5236 19.8506C53.185 19.7336 52.8391 19.6386 52.5005 19.529C52.3202 19.5198 52.1417 19.5685 51.9903 19.6683C51.839 19.768 51.7225 19.9137 51.6575 20.0845C51.2684 21.0567 50.8721 22.0289 50.5047 23.0084C50.4373 23.1195 50.3971 23.2453 50.3873 23.3754C50.3776 23.5055 50.3986 23.636 50.4487 23.7561C50.4987 23.8763 50.5763 23.9826 50.6751 24.0661C50.7738 24.1497 50.8908 24.2081 51.0162 24.2365C51.6791 24.5143 52.3708 24.7189 53.0409 24.9675C53.3723 25.099 53.4083 24.8724 53.466 24.6751C53.5236 24.4777 53.7398 24.2438 53.3435 24.1195C52.9472 23.9953 52.3564 23.7833 51.9025 23.6078C51.8266 23.5925 51.7554 23.5592 51.6946 23.5105C51.6339 23.4619 51.5854 23.3994 51.5531 23.3281C51.5207 23.2568 51.5055 23.1787 51.5086 23.1003C51.5117 23.0218 51.5331 22.9453 51.571 22.8769C51.7512 22.3432 51.8088 22.3067 52.2555 22.4529L53.8478 23.0084C54.2225 23.14 54.1865 22.7745 54.2802 22.6064C54.3738 22.4383 54.4243 22.2775 54.1505 22.1897C53.6461 22.0289 53.149 21.8462 52.6518 21.6634C52.4284 21.583 52.1474 21.5392 52.2555 21.1737C52.4068 20.6474 52.6806 20.4427 53.0481 20.5596C53.4155 20.6766 53.9055 20.8593 54.3306 21.0275C54.8782 21.2395 54.9358 21.2248 55.0511 20.6401C55.0484 20.5843 55.0326 20.53 55.005 20.4817C54.9774 20.4334 54.9389 20.3925 54.8926 20.3623Z" fill="#56423D"/>
<path d="M29.653 28.3958L26.2162 26.8242C25.9064 26.6853 25.5894 26.5683 25.3732 26.4806C24.5806 26.4806 24.1916 27.0727 24.5374 27.7013C25.2147 28.9294 25.9208 30.1355 26.6341 31.3562C26.8935 31.8021 26.9007 31.7802 27.2826 31.422C27.4987 31.2173 27.5636 31.0419 27.369 30.7934C27.2682 30.6618 27.2033 30.4937 27.1024 30.3548C27.0696 30.3193 27.0449 30.2769 27.0302 30.2306C27.0155 30.1843 27.0111 30.1353 27.0173 30.087C27.0235 30.0388 27.0401 29.9925 27.0661 29.9516C27.092 29.9107 27.1266 29.8761 27.1673 29.8504C27.4348 29.6056 27.6897 29.347 27.931 29.0756C27.9673 29.016 28.0154 28.9648 28.0722 28.9252C28.129 28.8855 28.1934 28.8583 28.2611 28.8452C28.3289 28.8321 28.3986 28.8335 28.4658 28.8493C28.533 28.865 28.5963 28.8948 28.6515 28.9367C29.372 29.3241 29.372 29.2876 29.7539 28.9367C30.0133 28.6662 29.9557 28.5346 29.653 28.3958ZM27.1024 28.7028C26.5476 29.2656 26.5404 29.2656 26.0793 28.6224C25.9208 28.4104 25.7767 28.1838 25.6398 27.9572C25.6215 27.921 25.6119 27.8809 25.6119 27.8402C25.6119 27.7995 25.6215 27.7594 25.6398 27.7233C25.6701 27.6969 25.7063 27.6785 25.7452 27.6696C25.7841 27.6607 25.8246 27.6615 25.8632 27.6721C26.2811 27.8475 26.6965 28.0327 27.1096 28.2276C27.1889 28.2642 27.2393 28.3592 27.3258 28.4542C27.2321 28.5493 27.1673 28.6224 27.0952 28.7101L27.1024 28.7028Z" fill="#56423D"/>
<path d="M24.588 31.0566C24.369 30.9538 24.1201 30.9372 23.8898 31.0102C23.6594 31.0831 23.464 31.2403 23.3415 31.4513C23.1755 31.7053 22.9951 31.9494 22.8011 32.1823C22.4769 32.5478 22.2175 32.1823 21.9726 32.0507C21.7276 31.9191 21.8068 31.6633 21.9726 31.4586C22.1815 31.137 22.4049 30.8226 22.6138 30.501C23.0533 29.8212 22.9669 30.0186 22.3832 29.6384C22.3282 29.6204 22.2694 29.6169 22.2127 29.6285C22.1559 29.64 22.103 29.6661 22.059 29.7042C21.6483 30.2744 21.2448 30.8592 20.8702 31.4513C20.8063 31.548 20.7631 31.6572 20.7434 31.7719C20.7237 31.8866 20.7279 32.0042 20.7557 32.1172C20.7836 32.2301 20.8344 32.3359 20.905 32.4277C20.9756 32.5195 21.0644 32.5952 21.1656 32.6501C21.4538 32.8328 21.7492 33.001 22.0374 33.1837C22.1584 33.2701 22.2959 33.3297 22.4411 33.3585C22.5863 33.3874 22.7359 33.3848 22.8801 33.351C23.0242 33.3172 23.1597 33.2529 23.2777 33.1624C23.3957 33.0718 23.4936 32.957 23.5649 32.8255C23.6606 32.6571 23.7716 32.498 23.8963 32.3504C24.0404 32.2042 24.2422 31.963 24.3719 31.9849C24.625 32.0478 24.8474 32.2009 24.9987 32.4162C25.078 32.5331 24.9987 32.8255 24.8834 32.9936C24.6619 33.362 24.4214 33.7183 24.1629 34.0609C24.0116 34.2656 23.9972 34.4191 24.2566 34.536C24.3524 34.5812 24.4441 34.635 24.5304 34.6968C24.6961 34.8065 24.797 34.7846 24.9122 34.6091C25.2437 34.0974 25.6328 33.6004 25.9282 33.0887C26.05 32.8535 26.1536 32.6091 26.238 32.3577C26.1227 32.153 26.0507 31.9045 25.8921 31.7875C25.4796 31.5053 25.0431 31.2607 24.588 31.0566Z" fill="#56423D"/>
<path d="M60.5557 24.5216C61.0673 24.9236 61.1033 24.9163 61.4924 24.3827C61.6077 24.2292 61.6005 24.1268 61.4348 24.0172C60.6638 23.5055 59.9001 22.9865 59.1363 22.4602C58.9202 22.314 58.8049 22.3725 58.668 22.5625C58.3438 23.0084 58.3366 23.0084 58.7833 23.2935L59.0139 23.4689C59.2372 23.6298 59.23 23.7833 59.0643 24.0026C58.387 24.8944 57.7241 25.7935 57.0613 26.6999C56.9964 26.7949 56.91 26.9923 56.946 27.0215C57.1897 27.2261 57.4447 27.4165 57.7097 27.5917C57.733 27.4818 57.7718 27.3759 57.825 27.2774C58.4879 26.3856 59.1507 25.5011 59.8208 24.6166C60.109 24.2365 60.1811 24.2365 60.5557 24.5216Z" fill="#56423D"/>
<path d="M32.5999 25.6985C32.1532 26.0055 31.6993 26.2979 31.2598 26.6195C31.2172 26.6651 31.1646 26.6997 31.1062 26.7205C31.0479 26.7413 30.9854 26.7477 30.9241 26.7391C30.8629 26.7305 30.8045 26.7072 30.7538 26.6712C30.7032 26.6351 30.6617 26.5873 30.6329 26.5318C30.4168 26.254 30.2006 25.9762 29.9917 25.6911C29.545 25.0844 29.1055 24.4631 28.6443 23.8637C28.5651 23.7614 28.3705 23.6298 28.2985 23.659C28.0697 23.7869 27.8547 23.9388 27.6572 24.1122C27.669 24.1604 27.6911 24.2053 27.7221 24.2438C28.4858 25.2672 29.2424 26.3052 30.0349 27.3139C30.2476 27.5097 30.4911 27.6678 30.7554 27.7818C30.9234 27.751 31.0877 27.702 31.2454 27.6356C31.8866 27.2481 32.5207 26.8388 33.1547 26.4441C33.3205 26.3417 33.4429 26.2101 33.2556 26.042C33.0683 25.8739 32.9962 25.4061 32.5999 25.6985Z" fill="#56423D"/>
<path d="M68.0349 30.2671C68.179 30.8811 68.5249 31.0492 69.303 30.8738C69.1085 30.2159 68.9139 30.0843 68.0349 30.2671Z" fill="#56423D"/>
<path d="M54.3234 62.4448C54.2523 62.193 54.1159 61.9651 53.9283 61.7851C53.7407 61.6051 53.5088 61.4795 53.257 61.4215C51.1889 61.0814 49.068 61.4546 47.2335 62.4814C47.1869 62.5064 47.135 62.5194 47.0822 62.5194C47.0295 62.5194 46.9776 62.5064 46.9309 62.4814C45.6311 61.4648 44.6724 60.0658 44.1858 58.4756C44.1413 58.3597 44.0883 58.2473 44.0273 58.1394L43.2131 59.6013C43.1699 59.5282 43.141 59.4698 43.105 59.4186C42.8076 58.9083 42.4754 58.4198 42.1107 57.9566C41.2101 56.9332 40.2734 55.9391 39.3007 54.9815C38.4243 54.0952 37.29 53.5185 36.0656 53.3368C35.5757 53.2637 35.0785 53.2564 34.6246 53.1979C34.2787 53.1614 33.9041 53.081 33.587 53.0517C33.4285 53.0517 33.1908 52.986 33.3349 53.3295C33.479 53.6731 33.479 53.9362 33.5942 54.2213C33.7654 54.7928 34.0205 55.335 34.3508 55.8295C35.7918 57.4888 37.2328 59.0823 38.6739 60.7124C39.4569 61.5281 40.1976 62.3845 40.893 63.2782C42.3087 65.3854 43.386 67.7071 44.0849 70.1567C44.0849 70.259 44.1642 70.3614 44.2146 70.5003C46.3761 67.3351 48.8979 64.8644 52.904 64.3308C53.2513 64.63 53.5832 64.9472 53.8983 65.2811C54.0238 65.4315 54.1393 65.5902 54.2441 65.7562L54.3738 65.6465C54.7409 64.6085 54.723 63.4704 54.3234 62.4448Z" fill="#56423D"/>
<path d="M29.5726 40.8027C28.5134 40.6711 27.411 40.6638 26.3735 40.6053V40.6638C25.653 40.6638 24.9757 40.6638 24.2768 40.6638C23.8118 40.6829 23.3503 40.7539 22.9006 40.8758C22.4849 40.9625 22.119 41.2104 21.8808 41.5668C21.6426 41.9231 21.5509 42.3598 21.6253 42.7837C21.6253 43.0834 21.6758 43.3831 21.683 43.6828C21.683 44.7573 21.683 45.8319 21.7262 46.9064C21.6967 47.1606 21.7443 47.4179 21.8628 47.6438C21.9812 47.8698 22.1648 48.0537 22.3891 48.171C22.9096 48.4028 23.465 48.5437 24.0318 48.5877C25.4729 48.6461 26.9139 48.5877 28.3549 48.5877C28.7671 48.5821 29.1776 48.5332 29.5798 48.4415C30.7542 48.171 31.0208 47.769 31.0568 46.5336C31.0929 45.2982 31.0568 43.8875 31.0568 42.5644C31.0496 41.4825 30.6461 40.9416 29.5726 40.8027ZM28.3837 46.2339C28.3938 46.3359 28.3827 46.4388 28.351 46.5361C28.3194 46.6334 28.2679 46.7229 28.2 46.7987C28.132 46.8745 28.0491 46.935 27.9567 46.9762C27.8642 47.0175 27.7642 47.0385 27.6632 47.038C26.8202 47.038 25.97 47.038 25.127 47.038C25.0248 47.0361 24.924 47.0138 24.8303 46.9723C24.7366 46.9309 24.6519 46.8711 24.581 46.7965C24.51 46.7218 24.4543 46.6337 24.417 46.5371C24.3796 46.4406 24.3614 46.3376 24.3633 46.2339C24.3633 45.1301 24.3633 44.041 24.3633 42.9152C24.3631 42.738 24.4305 42.5675 24.5514 42.4394C24.6722 42.3114 24.8372 42.2357 25.0117 42.2281C25.8756 42.178 26.7417 42.178 27.6056 42.2281C28.146 42.2281 28.3261 42.5717 28.3261 43.1272C28.3261 43.3977 28.3261 43.6608 28.3261 43.9313C28.3261 44.2018 28.3261 44.443 28.3261 44.7062C28.3909 45.2178 28.3909 45.7368 28.3837 46.2339Z" fill="#56423D"/>
<path d="M42.7146 46.3363L40.553 42.2355C40.3738 41.7274 40.0626 41.2779 39.6524 40.9343C39.3093 40.7233 38.9275 40.5853 38.5302 40.5289C38.1328 40.4725 37.7283 40.4988 37.3414 40.6062C36.9544 40.7136 36.593 40.8998 36.2793 41.1535C35.9656 41.4073 35.7061 41.7231 35.5167 42.082C34.7529 43.6243 33.9459 45.1448 33.1534 46.6798C32.8363 47.2938 32.5049 47.9006 32.1375 48.595C33.0813 48.595 33.9315 48.595 34.7889 48.595C34.8754 48.595 34.9907 48.478 35.0411 48.383C35.2573 47.9956 35.4662 47.5935 35.668 47.1915C35.7129 47.0704 35.794 46.9666 35.8999 46.8945C36.0058 46.8225 36.1313 46.7857 36.2588 46.7895C37.4332 46.7895 38.6076 46.7895 39.7893 46.7895C39.8831 46.8029 39.9735 46.835 40.0551 46.8839C40.1367 46.9329 40.2079 46.9976 40.2648 47.0746C40.5242 47.4766 40.7187 47.9225 40.9853 48.3318C41.0194 48.3938 41.0659 48.4479 41.1217 48.4907C41.1775 48.5335 41.2415 48.564 41.3096 48.5804C42.0805 48.5804 42.8587 48.5804 43.6296 48.5804C43.8386 48.5804 43.853 48.4927 43.7593 48.3172C43.4351 47.6959 43.0676 47.0015 42.7146 46.3363ZM38.9967 45.3933H38.0457C37.7286 45.3933 37.4116 45.3933 37.0946 45.3933C36.7775 45.3933 36.7271 45.2544 36.828 44.9913C37.0946 44.3041 37.354 43.6097 37.635 42.9299C37.6782 42.8349 37.7791 42.7106 37.8655 42.696C37.952 42.6814 38.0529 42.8129 38.1033 42.908C38.4852 43.6389 38.8238 44.3261 39.2273 45.0278C39.3642 45.2983 39.2489 45.3933 38.9967 45.3933Z" fill="#56423D"/>
<path d="M53.0541 40.6566C51.1664 40.6566 49.2786 40.6566 47.3981 40.6566C46.8928 40.6776 46.392 40.7611 45.9066 40.9051C45.6089 40.9754 45.3441 41.1475 45.1565 41.3923C44.9689 41.6372 44.87 41.94 44.8763 42.2501C44.8452 42.7962 44.8596 43.3439 44.9195 43.8875C44.9861 44.2043 45.1471 44.4927 45.3807 44.7135C45.9392 45.1707 46.6457 45.4001 47.3621 45.3568C48.2267 45.3568 49.0985 45.3568 49.9703 45.3568C50.0761 45.3476 50.1825 45.3622 50.282 45.3996C50.3815 45.4369 50.4716 45.4961 50.546 45.573C50.6203 45.6498 50.677 45.7423 50.712 45.8439C50.747 45.9456 50.7595 46.0538 50.7485 46.1608C50.7485 46.7383 50.4171 47.0526 49.783 47.06H45.9931C44.7106 47.06 44.9628 46.9064 44.9195 48.1564C44.9195 48.4854 45.0348 48.5877 45.3519 48.5804C46.2813 48.5804 47.218 48.5804 48.1474 48.5804C49.0769 48.5804 50.0136 48.6316 50.943 48.5804C51.5393 48.517 52.1252 48.377 52.6867 48.1637C52.9125 48.0787 53.1049 47.9215 53.2349 47.7158C53.3649 47.5101 53.4253 47.2671 53.4072 47.0234C53.4072 46.4313 53.4072 45.8392 53.4072 45.2471C53.4063 45.0494 53.3485 44.8563 53.241 44.6914C53.1335 44.5265 52.9809 44.397 52.8019 44.3188C52.1826 44.0054 51.4981 43.8475 50.8061 43.8583C49.9992 43.8583 49.1922 43.8583 48.3924 43.8583C48.2978 43.8642 48.2029 43.8511 48.1132 43.8198C48.0236 43.7884 47.9409 43.7394 47.8699 43.6756C47.799 43.6117 47.7411 43.5343 47.6997 43.4478C47.6583 43.3612 47.6342 43.2672 47.6287 43.1711C47.6287 42.484 47.7512 42.2793 48.3492 42.1989C48.4859 42.1899 48.6231 42.1899 48.7599 42.1989H52.3624C52.7083 42.1989 53.1982 42.3013 53.3639 42.1112C53.5297 41.9212 53.436 41.4241 53.472 41.0732C53.508 40.7223 53.3351 40.6566 53.0541 40.6566Z" fill="#56423D"/>
<path d="M68.4226 45.3641C68.4342 45.1307 68.37 44.8999 68.2399 44.7071C68.1097 44.5143 67.9208 44.3702 67.7021 44.2968C67.1199 44.0851 66.5154 43.9429 65.9008 43.8729C65.0938 43.7998 64.2724 43.8729 63.4582 43.8729C62.9179 43.8729 62.5864 43.5805 62.5648 43.1419C62.5648 42.5059 62.7017 42.3013 63.3502 42.2135C63.4653 42.2056 63.5809 42.2056 63.696 42.2135H67.7957C68.4154 42.2135 68.4154 42.2135 68.4082 41.6068C68.3997 41.4778 68.3997 41.3484 68.4082 41.2194C68.4514 40.8539 68.3145 40.737 67.947 40.737C66.5709 40.737 65.1947 40.737 63.8185 40.737C62.9634 40.713 62.1078 40.7619 61.2607 40.8832C60.2952 41.0586 59.8197 41.5045 59.9061 42.601C59.9323 42.9879 59.9323 43.3763 59.9061 43.7632C59.8866 43.9953 59.9341 44.2281 60.0429 44.4332C60.1516 44.6383 60.3169 44.8068 60.5186 44.9182C61.0829 45.2647 61.7324 45.4421 62.3919 45.4299C63.2637 45.4299 64.1283 45.4299 65.0001 45.4299C65.1321 45.4411 65.2601 45.4809 65.3757 45.5464C65.4912 45.612 65.5917 45.7018 65.6702 45.81C65.7581 46.0005 65.7795 46.2156 65.7311 46.4201C65.6826 46.6247 65.5672 46.8064 65.4036 46.9357C65.1802 47.0503 64.9335 47.1104 64.6831 47.1111C63.3286 47.1111 61.974 47.1111 60.6122 47.1111C59.7692 47.1111 59.8917 47.0746 59.8917 47.8421C59.8917 48.0102 59.8917 48.1857 59.8917 48.3538C59.8917 48.5219 59.9782 48.6681 60.2087 48.6681C61.1742 48.6681 62.1397 48.6681 63.0908 48.6681C63.5015 48.6681 63.9194 48.6681 64.3301 48.6681C65.192 48.6489 66.0515 48.5683 66.9023 48.4269C68.0695 48.2149 68.5018 47.6959 68.4442 46.5629C68.4226 46.1828 68.437 45.7734 68.4226 45.3641Z" fill="#56423D"/>
<path d="M58.0114 44.6258C58.0114 43.4318 58.0114 42.2403 58.0114 41.0513C58.0114 40.8466 58.0114 40.6639 57.7232 40.6712C57.0459 40.6712 56.3686 40.6712 55.6913 40.6712C55.4319 40.6712 55.331 40.7662 55.3382 41.0294C55.3382 41.7165 55.3382 42.4036 55.3382 43.0907C55.3382 44.7793 55.3382 46.4605 55.3382 48.1491C55.3382 48.5146 55.4607 48.6389 55.8138 48.6242C56.3974 48.6242 56.981 48.6242 57.5574 48.6242C57.9033 48.6242 58.0258 48.5292 58.0186 48.171C58.0186 46.9868 58.0186 45.81 58.0186 44.6258H58.0114Z" fill="#56423D"/>
</g>
<defs>
<clipPath id="clip0">
<rect x="4.5" y="4.5" width="81" height="81" fill="white"/>
</clipPath>
</defs>
</svg>
