<?xml version="1.0" encoding="utf-8"?>
<!-- Generator: Adobe Illustrator 21.0.0, SVG Export Plug-In . SVG Version: 6.00 Build 0)  -->
<svg version="1.1" id="Layer_1" xmlns="http://www.w3.org/2000/svg" xmlns:xlink="http://www.w3.org/1999/xlink" x="0px" y="0px"
	 viewBox="0 0 26 26" style="enable-background:new 0 0 26 26;" xml:space="preserve">
<style type="text/css">
	.st0{fill:#BFA6A0;}
</style>
<title>Asset 4</title>
<g id="Layer_2">
	<g id="Capa_1">
		<g id="_Group_">
			<g id="_Group_2">
				<path id="_Compound_Path_" class="st0" d="M13,3.8c3,0,3.3,0,4.5,0.1c0.7,0,1.4,0.1,2.1,0.4c0.5,0.2,0.9,0.5,1.3,0.9
					c0.4,0.4,0.7,0.8,0.9,1.3c0.2,0.7,0.4,1.4,0.4,2.1c0.1,1.2,0.1,1.5,0.1,4.5s0,3.3-0.1,4.5c0,0.7-0.1,1.4-0.4,2.1
					c-0.4,1-1.2,1.8-2.1,2.1c-0.7,0.2-1.4,0.4-2.1,0.4c-1.2,0.1-1.5,0.1-4.5,0.1s-3.3,0-4.5-0.1c-0.7,0-1.4-0.1-2.1-0.4
					c-0.5-0.2-0.9-0.5-1.3-0.9c-0.4-0.4-0.7-0.8-0.9-1.3c-0.2-0.7-0.4-1.4-0.4-2.1C3.8,16.3,3.8,16,3.8,13s0-3.3,0.1-4.5
					c0-0.7,0.1-1.4,0.4-2.1c0.2-0.5,0.5-0.9,0.9-1.3c0.4-0.4,0.8-0.7,1.3-0.9C7.1,4,7.8,3.9,8.5,3.9C9.7,3.8,10,3.8,13,3.8 M13,1.8
					c-3,0-3.4,0-4.6,0.1c-0.9,0-1.9,0.2-2.7,0.5c-0.7,0.3-1.4,0.7-2,1.3c-0.6,0.6-1,1.2-1.3,2C2.1,6.5,1.9,7.5,1.9,8.4
					C1.8,9.6,1.8,10,1.8,13s0,3.4,0.1,4.6c0,0.9,0.2,1.9,0.5,2.7c0.3,0.7,0.7,1.4,1.3,2c0.6,0.6,1.2,1,2,1.3
					c0.9,0.3,1.8,0.5,2.7,0.5c1.2,0.1,1.6,0.1,4.6,0.1s3.4,0,4.6-0.1c0.9,0,1.9-0.2,2.7-0.5c1.5-0.6,2.7-1.8,3.3-3.3
					c0.3-0.9,0.5-1.8,0.5-2.7c0.1-1.2,0.1-1.6,0.1-4.6s0-3.4-0.1-4.6c0-0.9-0.2-1.9-0.5-2.7c-0.3-0.7-0.7-1.4-1.3-2
					c-0.6-0.6-1.2-1-2-1.3c-0.9-0.3-1.8-0.5-2.7-0.5C16.4,1.8,16,1.8,13,1.8"/>
				<path id="_Compound_Path_2" class="st0" d="M13,7.3c-3.2,0-5.8,2.6-5.8,5.8s2.6,5.8,5.8,5.8c3.2,0,5.8-2.6,5.8-5.8c0,0,0,0,0,0
					C18.8,9.8,16.2,7.3,13,7.3 M13,16.7c-2.1,0-3.7-1.7-3.7-3.7S11,9.3,13,9.3c2.1,0,3.7,1.7,3.7,3.7C16.7,15.1,15.1,16.7,13,16.7
					C13,16.7,13,16.7,13,16.7"/>
				<path id="_Path_" class="st0" d="M20.3,7c0,0.7-0.6,1.3-1.3,1.3S17.6,7.8,17.6,7s0.6-1.3,1.3-1.3l0,0C19.7,5.7,20.3,6.3,20.3,7"
					/>
			</g>
		</g>
	</g>
</g>
</svg>
