<?xml version="1.0" encoding="utf-8"?>
<!-- Generator: Adobe Illustrator 21.0.0, SVG Export Plug-In . SVG Version: 6.00 Build 0)  -->
<svg version="1.1" id="Layer_1" xmlns="http://www.w3.org/2000/svg" xmlns:xlink="http://www.w3.org/1999/xlink" x="0px" y="0px"
	 viewBox="0 0 26 26" style="enable-background:new 0 0 26 26;" xml:space="preserve">
<style type="text/css">
	.st0{fill:#BFA6A0;}
</style>
<title>Asset 1</title>
<g id="Layer_2">
	<g id="Capa_1">
		<g id="_Group_">
			<path id="_Path_2" class="st0" d="M2.9,19.4c5.5,3.5,12.8,1.9,16.3-3.6c1.3-2.1,2-4.5,1.9-6.9c0.8-0.6,1.5-1.3,2.1-2.1
				c-0.8,0.3-1.6,0.6-2.4,0.6c0.9-0.5,1.5-1.3,1.8-2.3c-0.8,0.5-1.7,0.8-2.6,1c-1.6-1.7-4.2-1.8-5.9-0.2c-1.1,1-1.6,2.5-1.2,4
				C9.5,9.7,6.3,8.2,4.2,5.5c-1.1,1.9-0.5,4.3,1.3,5.6c-0.7,0-1.3-0.2-1.9-0.5c0,2,1.4,3.7,3.3,4.1c-0.6,0.2-1.3,0.2-1.9,0.1
				c0.5,1.7,2.1,2.9,3.9,2.9C7.4,19.1,5.1,19.7,2.9,19.4z"/>
		</g>
	</g>
</g>
</svg>
