<?xml version="1.0" encoding="utf-8"?>
<!-- Generator: Adobe Illustrator 21.0.0, SVG Export Plug-In . SVG Version: 6.00 Build 0)  -->
<svg version="1.1" id="Layer_1" xmlns="http://www.w3.org/2000/svg" xmlns:xlink="http://www.w3.org/1999/xlink" x="0px" y="0px"
	 viewBox="0 0 26 26" style="enable-background:new 0 0 26 26;" xml:space="preserve">
<style type="text/css">
	.st0{fill:#BFA6A0;}
</style>
<title>Asset 3</title>
<path class="st0" d="M22.9,8.1c-0.2-0.9-0.9-1.6-1.8-1.8C19.5,5.8,13,5.8,13,5.8s-6.5,0-8.1,0.4C4,6.5,3.3,7.2,3.1,8.1
	c-0.3,1.7-0.4,3.3-0.4,5c0,1.7,0.1,3.4,0.4,5C3.3,19,4,19.7,4.9,19.8c1.6,0.4,8.1,0.4,8.1,0.4s6.5,0,8.1-0.4
	c0.9-0.2,1.6-0.9,1.8-1.8c0.3-1.7,0.4-3.3,0.4-5C23.3,11.4,23.2,9.7,22.9,8.1z M10.9,16.2V10l5.4,3.1L10.9,16.2z"/>
</svg>
