<?xml version="1.0" encoding="utf-8"?>
<!-- Generator: Adobe Illustrator 21.0.0, SVG Export Plug-In . SVG Version: 6.00 Build 0)  -->
<svg version="1.1" id="Layer_1" xmlns="http://www.w3.org/2000/svg" xmlns:xlink="http://www.w3.org/1999/xlink" x="0px" y="0px"
	 viewBox="0 0 16 44" style="enable-background:new 0 0 16 44;" xml:space="preserve">
<style type="text/css">
	.st0{fill:#FFFFFF;}
</style>
<path class="st0" d="M8.4,40.9l6.6-6.6c0.2-0.2,0.2-0.5,0-0.7c-0.2-0.2-0.5-0.2-0.7,0l-5.7,5.7v-36C8.5,3,8.3,2.8,8,2.8
	C7.7,2.8,7.5,3,7.5,3.3v36l-5.7-5.7c-0.2-0.2-0.5-0.2-0.7,0C1,33.7,1,33.8,1,34s0,0.3,0.1,0.4l6.5,6.5C7.8,41.1,8.2,41.1,8.4,40.9z"
	/>
</svg>
